<svg width="254" height="203" viewBox="0 0 254 203" fill="none" xmlns="http://www.w3.org/2000/svg">
<path fill-rule="evenodd" clip-rule="evenodd" d="M94.488 137.025H178.816C182.744 137.025 185.928 133.844 185.928 129.92C185.928 125.996 182.744 122.815 178.816 122.815C178.816 122.815 172.72 119.634 172.72 115.71C172.72 111.786 176.735 108.605 181.687 108.605H192.024C195.952 108.605 199.136 105.424 199.136 101.5C199.136 97.5761 195.952 94.3951 192.024 94.3951H169.672C173.6 94.3951 176.784 91.2141 176.784 87.2901C176.784 83.3661 173.6 80.1851 169.672 80.1851H210.312C214.24 80.1851 217.424 77.0041 217.424 73.0801C217.424 69.1561 214.24 65.9751 210.312 65.9751H110.744C106.816 65.9751 103.632 69.1561 103.632 73.0801C103.632 77.0041 106.816 80.1851 110.744 80.1851H70.104C66.1761 80.1851 62.992 83.3661 62.992 87.2901C62.992 91.2141 66.1761 94.3951 70.104 94.3951H95.504C99.4318 94.3951 102.616 97.5761 102.616 101.5C102.616 105.424 99.4318 108.605 95.504 108.605H54.864C50.9361 108.605 47.752 111.786 47.752 115.71C47.752 119.634 50.9361 122.815 54.864 122.815H94.488C90.5601 122.815 87.376 125.996 87.376 129.92C87.376 133.844 90.5601 137.025 94.488 137.025ZM203.2 101.5C203.2 105.424 206.384 108.605 210.312 108.605C214.24 108.605 217.424 105.424 217.424 101.5C217.424 97.5761 214.24 94.3951 210.312 94.3951C206.384 94.3951 203.2 97.5761 203.2 101.5Z" fill="#F3F7FF"/>
<path fill-rule="evenodd" clip-rule="evenodd" d="M68.5355 75.01C68.2793 73.3766 69.3929 71.8439 71.0255 71.5828L155.473 58.0765C157.113 57.8143 158.654 58.9337 158.911 60.574L167.177 113.273C167.433 114.906 166.319 116.439 164.687 116.7L80.2387 130.206C78.5992 130.468 77.0585 129.349 76.8012 127.709L68.5355 75.01Z" fill="white"/>
<path d="M154.187 59.141L154.39 60.3744L154.187 59.141ZM157.407 61.6151L158.643 61.4269V61.4269L157.407 61.6151ZM72.7279 72.5536L72.5248 71.3202L72.7279 72.5536ZM70.3747 75.9767L71.6104 75.7884L70.3747 75.9767ZM78.0202 126.16L76.7844 126.348L78.0202 126.16ZM81.2407 128.634L81.4438 129.867H81.4438L81.2407 128.634ZM84.475 128.101L84.2719 126.868L84.2719 126.868L84.475 128.101ZM85.9119 129.132L84.6785 129.335L85.9119 129.132ZM84.8819 130.568L84.6789 129.335H84.6789L84.8819 130.568ZM81.6476 131.101L81.8507 132.334H81.8507L81.6476 131.101ZM75.5486 126.536L74.3128 126.724L75.5486 126.536ZM67.9031 76.3525L66.6673 76.5407L67.9031 76.3525ZM72.3209 70.087L72.1178 68.8536L72.3209 70.087ZM153.78 56.6744L153.983 57.9077L153.78 56.6744ZM159.879 61.2394L161.115 61.0511V61.0511L159.879 61.2394ZM160.699 66.6196L159.463 66.8079V66.8079L160.699 66.6196ZM159.651 68.0433L159.463 66.8075L159.651 68.0433ZM158.227 66.9954L156.991 67.1837L156.991 67.1837L158.227 66.9954ZM161.279 70.4314L160.044 70.6197L161.279 70.4314ZM159.855 69.3836L159.667 68.1478L159.855 69.3836ZM161.764 73.6118L163 73.4235L161.764 73.6118ZM160.716 75.0354L160.528 73.7996L160.716 75.0354ZM159.292 73.9875L160.528 73.7993L159.292 73.9875ZM158.808 70.8072L157.572 70.9955L158.808 70.8072ZM154.39 60.3744C155.157 60.2482 156.017 60.7881 156.172 61.8034L158.643 61.4269C158.29 59.1114 156.199 57.5428 153.984 57.9076L154.39 60.3744ZM72.9309 73.787L154.39 60.3744L153.984 57.9076L72.5248 71.3202L72.9309 73.787ZM71.6104 75.7884C71.4525 74.7522 72.1383 73.9175 72.9309 73.787L72.5248 71.3202C70.3081 71.6852 68.7862 73.8498 69.1389 76.1649L71.6104 75.7884ZM79.2559 125.971L71.6104 75.7884L69.1389 76.1649L76.7844 126.348L79.2559 125.971ZM81.0376 127.4C80.2709 127.527 79.4106 126.987 79.2559 125.971L76.7844 126.348C77.1372 128.664 79.2281 130.232 81.4438 129.867L81.0376 127.4ZM84.2719 126.868L81.0376 127.4L81.4438 129.867L84.6781 129.335L84.2719 126.868ZM87.1452 128.928C86.9205 127.566 85.6342 126.644 84.2719 126.868L84.6781 129.335L84.6785 129.335L87.1452 128.928ZM85.085 131.801C86.4475 131.577 87.37 130.291 87.1452 128.928L84.6785 129.335L84.6789 129.335L85.085 131.801ZM81.8507 132.334L85.085 131.801L84.6789 129.335L81.4446 129.867L81.8507 132.334ZM74.3128 126.724C74.8605 130.318 78.1653 132.941 81.8507 132.334L81.4446 129.867C79.2258 130.232 77.1367 128.66 76.7843 126.347L74.3128 126.724ZM66.6673 76.5407L74.3128 126.724L76.7843 126.347L69.1388 76.1642L66.6673 76.5407ZM72.1178 68.8536C68.4592 69.456 66.1227 72.966 66.6673 76.5407L69.1388 76.1642C68.7865 73.8518 70.3053 71.6857 72.524 71.3204L72.1178 68.8536ZM153.577 55.441L72.1178 68.8536L72.524 71.3204L153.983 57.9077L153.577 55.441ZM161.115 61.0511C160.567 57.4564 157.262 54.8341 153.577 55.441L153.983 57.9077C156.202 57.5424 158.291 59.1147 158.643 61.4276L161.115 61.0511ZM161.934 66.4314L161.115 61.0511L158.643 61.4276L159.463 66.8079L161.934 66.4314ZM159.839 69.279C161.204 69.0715 162.142 67.7965 161.934 66.4313L159.463 66.8079L159.463 66.8075L159.839 69.279ZM156.991 67.1837C157.199 68.5485 158.474 69.4866 159.839 69.279L159.463 66.8075L159.463 66.8071L156.991 67.1837ZM156.172 61.8034L156.991 67.1837L159.463 66.8071L158.643 61.4269L156.172 61.8034ZM162.515 70.2431C162.307 68.8783 161.032 67.9402 159.667 68.1478L160.043 70.6194L160.044 70.6197L162.515 70.2431ZM163 73.4235L162.515 70.2431L160.044 70.6197L160.528 73.8L163 73.4235ZM160.904 76.2712C162.269 76.0636 163.208 74.7886 163 73.4235L160.528 73.8L160.528 73.7996L160.904 76.2712ZM158.057 74.1758C158.265 75.5406 159.539 76.4787 160.904 76.2712L160.528 73.7996L160.528 73.7993L158.057 74.1758ZM157.572 70.9955L158.057 74.1758L160.528 73.7993L160.044 70.6189L157.572 70.9955ZM159.667 68.1478C158.302 68.3553 157.364 69.6303 157.572 70.9955L160.044 70.6189L160.043 70.6194L159.667 68.1478Z" fill="#0F2236"/>
<path fill-rule="evenodd" clip-rule="evenodd" d="M72.6145 77.3315C72.3506 75.6902 73.4715 74.1473 75.114 73.8911L152.181 61.8678C153.813 61.6132 155.343 62.7252 155.605 64.3556L163.097 110.951C163.361 112.592 162.24 114.135 160.598 114.391L83.5311 126.415C81.8994 126.669 80.3689 125.557 80.1067 123.927L72.6145 77.3315Z" fill="white"/>
<rect x="89.6421" y="78.3899" width="87.924" height="57.385" rx="2.75" fill="white" stroke="#0F2236" stroke-width="2.5"/>
<rect x="90.9319" y="90.335" width="85.344" height="14.21" fill="white"/>
<path d="M110.064 90.335V87.835C108.683 87.835 107.564 88.9542 107.564 90.335H110.064ZM110.064 90.335H107.564C107.564 91.7157 108.683 92.835 110.064 92.835V90.335ZM176.958 90.335H110.064V92.835H176.958V90.335ZM176.958 90.335V92.835C178.338 92.835 179.458 91.7157 179.458 90.335H176.958ZM176.958 90.335H179.458C179.458 88.9542 178.338 87.835 176.958 87.835V90.335ZM110.064 90.335H176.958V87.835H110.064V90.335ZM90.7607 103.53V101.03C89.38 101.03 88.2607 102.149 88.2607 103.53H90.7607ZM90.7607 103.53H88.2607C88.2607 104.911 89.38 106.03 90.7607 106.03V103.53ZM170.862 103.53H90.7607V106.03H170.862V103.53ZM170.862 103.53V106.03C172.242 106.03 173.362 104.911 173.362 103.53H170.862ZM170.862 103.53H173.362C173.362 102.149 172.242 101.03 170.862 101.03V103.53ZM90.7607 103.53H170.862V101.03H90.7607V103.53ZM98.3026 120.315C96.9219 120.315 95.8026 121.434 95.8026 122.815H98.3026V120.315ZM127.063 120.315H98.3026V122.815H127.063V120.315ZM129.563 122.815C129.563 121.434 128.444 120.315 127.063 120.315V122.815H129.563ZM127.063 125.315C128.444 125.315 129.563 124.196 129.563 122.815H127.063V125.315ZM98.3026 125.315H127.063V122.815H98.3026V125.315ZM95.8026 122.815C95.8026 124.196 96.9219 125.315 98.3026 125.315V122.815H95.8026ZM97.63 90.335V87.835C96.2493 87.835 95.13 88.9542 95.13 90.335H97.63ZM97.63 90.335H95.13C95.13 91.7157 96.2493 92.835 97.63 92.835V90.335ZM104.942 90.335H97.63V92.835H104.942V90.335ZM104.942 90.335H104.942V92.835C106.322 92.835 107.442 91.7157 107.442 90.335H104.942ZM104.942 90.335H104.942H107.442C107.442 88.9542 106.322 87.835 104.942 87.835V90.335ZM97.63 90.335H104.942V87.835H97.63V90.335Z" fill="#0F2236"/>
</svg>
