<svg width="254" height="203" viewBox="0 0 254 203" fill="none" xmlns="http://www.w3.org/2000/svg">
<path fill-rule="evenodd" clip-rule="evenodd" d="M56.896 128.905C56.896 132.829 60.0801 136.01 64.008 136.01H212.344C216.272 136.01 219.456 132.829 219.456 128.905C219.456 124.981 216.272 121.8 212.344 121.8H206.248C202.32 121.8 199.136 118.619 199.136 114.695C199.136 110.771 202.32 107.59 206.248 107.59H225.552C229.48 107.59 232.664 104.409 232.664 100.485C232.664 96.561 229.48 93.38 225.552 93.38H203.2C207.128 93.38 210.312 90.1989 210.312 86.275C210.312 82.351 207.128 79.17 203.2 79.17H138.176C142.104 79.17 145.288 75.9889 145.288 72.065C145.288 68.141 142.104 64.96 138.176 64.96H80.264C76.3361 64.96 73.152 68.141 73.152 72.065C73.152 75.9889 76.3361 79.17 80.264 79.17H39.624C35.6961 79.17 32.512 82.351 32.512 86.275C32.512 90.1989 35.6961 93.38 39.624 93.38H65.024C68.9518 93.38 72.136 96.561 72.136 100.485C72.136 104.409 68.9518 107.59 65.024 107.59H24.384C20.4561 107.59 17.272 110.771 17.272 114.695C17.272 118.619 20.4561 121.8 24.384 121.8H64.008C60.0801 121.8 56.896 124.981 56.896 128.905ZM236.728 128.905C236.728 132.829 233.544 136.01 229.616 136.01C225.688 136.01 222.504 132.829 222.504 128.905C222.504 124.981 225.688 121.8 229.616 121.8C233.544 121.8 236.728 124.981 236.728 128.905Z" fill="#F3F7FF"/>
<path fill-rule="evenodd" clip-rule="evenodd" d="M159.383 144.251C162.47 142.267 165.214 139.791 167 137.792L159.383 144.251ZM169.881 134.471C171.358 132.664 172.686 130.774 173.864 128.818C176.454 124.516 178.322 119.895 179.463 115.129C180.617 110.31 181.029 105.345 180.695 100.415C180.403 96.1134 179.544 91.8394 178.115 87.7143C176.697 83.6218 174.719 79.6759 172.178 75.9951C170.664 73.8018 168.951 71.7026 167.037 69.7227C164.227 66.8158 161.145 64.3306 157.87 62.2687C154.351 60.0533 150.61 58.3265 146.745 57.0903C141.905 55.5421 136.87 54.7632 131.835 54.7575C127.917 54.753 123.998 55.2166 120.171 56.1499C115.861 57.2006 111.667 58.8467 107.718 61.0907C104.247 63.0633 100.965 65.498 97.9603 68.3963C94.1848 72.0387 91.1266 76.1446 88.7885 80.5387C86.4994 84.8408 84.9005 89.4193 83.9943 94.1097C83.0607 98.942 82.8625 103.893 83.4024 108.783C84.1022 115.121 86.042 121.356 89.2281 127.098C91.2668 130.771 93.8157 134.243 96.8764 137.409C101.735 142.436 107.408 146.201 113.484 148.698C120.873 151.734 128.857 152.893 136.699 152.162C143.28 151.548 149.761 149.602 155.704 146.316" fill="white"/>
<path d="M159.383 144.251L158.574 143.298L160.06 145.302L159.383 144.251ZM167 137.792L167.933 138.624L166.19 136.839L167 137.792ZM168.913 133.681C168.476 134.215 168.556 135.002 169.091 135.439C169.626 135.875 170.413 135.796 170.85 135.261L168.913 133.681ZM173.864 128.818L172.792 128.174L172.792 128.174L173.864 128.818ZM179.463 115.129L178.247 114.839L178.247 114.839L179.463 115.129ZM180.695 100.415L179.447 100.499L179.447 100.499L180.695 100.415ZM178.115 87.7143L176.933 88.1228L176.933 88.1228L178.115 87.7143ZM172.178 75.9951L173.208 75.2859L173.208 75.2859L172.178 75.9951ZM167.037 69.7227L166.137 70.5906L167.037 69.7227ZM157.87 62.2687L158.537 61.2118L158.537 61.2118L157.87 62.2687ZM146.745 57.0903L146.364 58.2802L146.364 58.2802L146.745 57.0903ZM131.835 54.7575L131.833 56.0069L131.833 56.0069L131.835 54.7575ZM120.171 56.1499L120.467 57.3636L120.467 57.3636L120.171 56.1499ZM107.718 61.0907L108.336 62.1767L108.336 62.1767L107.718 61.0907ZM97.9603 68.3963L98.829 69.2951L97.9603 68.3963ZM88.7885 80.5387L87.6842 79.9523L87.6842 79.9523L88.7885 80.5387ZM83.9943 94.1097L82.7664 93.8728L82.7664 93.8729L83.9943 94.1097ZM83.4024 108.783L84.6455 108.646L83.4024 108.783ZM89.2281 127.098L90.3219 126.492L90.3219 126.492L89.2281 127.098ZM96.8764 137.409L97.776 136.541L96.8764 137.409ZM113.484 148.698L113.008 149.853L113.008 149.853L113.484 148.698ZM136.699 152.162L136.815 153.406L136.815 153.406L136.699 152.162ZM156.31 147.409C156.914 147.075 157.133 146.315 156.798 145.711C156.464 145.108 155.703 144.889 155.098 145.223L156.31 147.409ZM160.06 145.302C163.249 143.252 166.078 140.7 167.933 138.624L166.067 136.96C164.351 138.881 161.691 141.281 158.706 143.2L160.06 145.302ZM166.19 136.839L158.574 143.298L160.193 145.203L167.809 138.744L166.19 136.839ZM170.85 135.261C172.365 133.408 173.727 131.469 174.935 129.462L172.792 128.174C171.645 130.079 170.352 131.92 168.913 133.681L170.85 135.261ZM174.935 129.462C177.593 125.049 179.509 120.308 180.679 115.42L178.247 114.839C177.135 119.482 175.316 123.984 172.792 128.174L174.935 129.462ZM180.679 115.42C181.863 110.478 182.285 105.385 181.943 100.331L179.447 100.499C179.773 105.304 179.372 110.143 178.247 114.839L180.679 115.42ZM181.943 100.331C181.644 95.9197 180.762 91.5366 179.297 87.3058L176.933 88.1228C178.325 92.1422 179.163 96.3071 179.447 100.499L181.943 100.331ZM179.297 87.3058C177.843 83.1082 175.814 79.0609 173.208 75.2859L171.149 76.7044C173.625 80.2909 175.552 84.1354 176.933 88.1228L179.297 87.3058ZM173.208 75.2859C171.655 73.0364 169.898 70.8842 167.936 68.8548L166.137 70.5906C168.003 72.5211 169.674 74.5672 171.149 76.7044L173.208 75.2859ZM167.936 68.8548C165.056 65.8752 161.896 63.3267 158.537 61.2118L157.203 63.3257C160.394 65.3345 163.397 67.7564 166.137 70.5906L167.936 68.8548ZM158.537 61.2118C154.928 58.9394 151.09 57.1683 147.126 55.9004L146.364 58.2802C150.13 59.4848 153.775 61.1672 157.203 63.3257L158.537 61.2118ZM147.126 55.9004C142.162 54.3126 136.999 53.514 131.836 53.5081L131.833 56.0069C136.741 56.0125 141.647 56.7715 146.364 58.2802L147.126 55.9004ZM131.836 53.5081C127.818 53.5035 123.8 53.9788 119.874 54.9361L120.467 57.3636C124.197 56.4543 128.015 56.0025 131.833 56.0069L131.836 53.5081ZM119.874 54.9361C115.454 56.0138 111.151 57.7025 107.1 60.0047L108.336 62.1767C112.183 59.9909 116.269 58.3873 120.467 57.3636L119.874 54.9361ZM107.1 60.0047C103.538 62.0286 100.172 64.526 97.0915 67.4976L98.829 69.2951C101.757 66.47 104.955 64.0981 108.336 62.1767L107.1 60.0047ZM97.0915 67.4976C93.2204 71.2322 90.0832 75.4437 87.6842 79.9523L89.8928 81.1252C92.1701 76.8454 95.1492 72.8452 98.829 69.2951L97.0915 67.4976ZM87.6842 79.9523C85.3357 84.366 83.6957 89.0625 82.7664 93.8728L85.2223 94.3465C86.1053 89.7761 87.6631 85.3157 89.8928 81.1252L87.6842 79.9523ZM82.7664 93.8729C81.8089 98.8286 81.6057 103.906 82.1593 108.92L84.6455 108.646C84.1193 103.88 84.3125 99.0553 85.2223 94.3465L82.7664 93.8729ZM82.1593 108.92C82.8769 115.419 84.8663 121.814 88.1343 127.703L90.3219 126.492C87.2178 120.898 85.3275 114.823 84.6455 108.646L82.1593 108.92ZM88.1343 127.703C90.2255 131.472 92.8395 135.031 95.9768 138.277L97.776 136.541C94.7918 133.454 92.308 130.071 90.3219 126.492L88.1343 127.703ZM95.9768 138.277C100.958 143.43 106.776 147.292 113.008 149.853L113.96 147.542C108.041 145.11 102.513 141.441 97.776 136.541L95.9768 138.277ZM113.008 149.853C120.586 152.967 128.774 154.156 136.815 153.406L136.582 150.918C128.94 151.631 121.159 150.501 113.96 147.542L113.008 149.853ZM136.815 153.406C143.564 152.776 150.212 150.781 156.31 147.409L155.098 145.223C149.31 148.424 142.996 150.32 136.582 150.918L136.815 153.406Z" fill="#0F2236"/>
<path d="M179.324 45.675V51.765" stroke="#0F2236" stroke-width="2.5" stroke-linecap="round" stroke-linejoin="round"/>
<path d="M179.324 59.885V65.975" stroke="#0F2236" stroke-width="2.5" stroke-linecap="round" stroke-linejoin="round"/>
<path d="M169.164 55.825H175.26" stroke="#0F2236" stroke-width="2.5" stroke-linecap="round" stroke-linejoin="round"/>
<path d="M183.388 55.825H189.484" stroke="#0F2236" stroke-width="2.5" stroke-linecap="round" stroke-linejoin="round"/>
<path d="M94.996 150.22V154.28" stroke="#0F2236" stroke-width="2.5" stroke-linecap="round" stroke-linejoin="round"/>
<path d="M94.996 162.4V166.46" stroke="#0F2236" stroke-width="2.5" stroke-linecap="round" stroke-linejoin="round"/>
<path d="M86.868 158.34H90.932" stroke="#0F2236" stroke-width="2.5" stroke-linecap="round" stroke-linejoin="round"/>
<path d="M99.0601 158.34H103.124" stroke="#0F2236" stroke-width="2.5" stroke-linecap="round" stroke-linejoin="round"/>
<path fill-rule="evenodd" clip-rule="evenodd" d="M117.025 63.6416C114.954 64.418 112.931 65.3613 110.976 66.4721C107.938 68.1981 105.066 70.3285 102.438 72.8646C101.36 73.9042 100.349 74.9869 99.4052 76.1075M96.4843 80.0091C95.7337 81.1422 95.0429 82.3038 94.4121 83.4894C93.9462 84.365 93.513 85.2537 93.1124 86.1537" fill="white"/>
<path d="M117.465 64.8114C118.111 64.5691 118.439 63.8489 118.196 63.2028C117.954 62.5567 117.233 62.2295 116.586 62.4719L117.465 64.8114ZM110.976 66.4721L110.357 65.3861L110.976 66.4721ZM102.438 72.8646L101.569 71.9658L102.438 72.8646ZM98.4483 75.303C98.0036 75.831 98.0715 76.6191 98.6 77.0634C99.1284 77.5077 99.9174 77.4399 100.362 76.912L98.4483 75.303ZM97.5272 80.6986C97.9084 80.1232 97.7504 79.348 97.1744 78.9672C96.5984 78.5864 95.8225 78.7442 95.4413 79.3196L97.5272 80.6986ZM94.4121 83.4894L93.3078 82.9029L93.3078 82.9029L94.4121 83.4894ZM91.9697 85.6461C91.6891 86.2766 91.9732 87.015 92.6043 87.2953C93.2355 87.5757 93.9746 87.2918 94.2552 86.6613L91.9697 85.6461ZM116.586 62.4719C114.453 63.2711 112.37 64.2424 110.357 65.3861L111.594 67.5581C113.491 66.4802 115.454 65.5648 117.465 64.8114L116.586 62.4719ZM110.357 65.3861C107.23 67.1634 104.274 69.3565 101.569 71.9658L103.306 73.7633C105.859 71.3005 108.647 69.2329 111.594 67.5581L110.357 65.3861ZM101.569 71.9658C100.46 73.0354 99.4199 74.1496 98.4483 75.303L100.362 76.912C101.278 75.8242 102.26 74.773 103.306 73.7633L101.569 71.9658ZM95.4413 79.3196C94.6685 80.4862 93.9573 81.6822 93.3078 82.9029L95.5164 84.0758C96.1285 82.9254 96.7988 81.7982 97.5272 80.6986L95.4413 79.3196ZM93.3078 82.9029C92.8281 83.8045 92.382 84.7195 91.9697 85.6461L94.2552 86.6613C94.6439 85.7879 95.0643 84.9255 95.5164 84.0758L93.3078 82.9029Z" fill="#0F2236"/>
<path d="M112.756 102.889C111.276 101.557 108.981 101.66 107.63 103.117C106.278 104.575 106.382 106.836 107.861 108.167L124.939 123.535C127.01 125.399 130.223 125.256 132.115 123.216C132.195 123.129 132.195 123.129 132.271 123.04L156.642 94.165C157.923 92.647 157.712 90.3932 156.171 89.131C154.63 87.8688 152.343 88.0762 151.061 89.5943L128.149 116.741L112.756 102.889Z" fill="white" stroke="#0F2236" stroke-width="2.5"/>
</svg>
