<svg width="16" height="15" fill="none" xmlns="http://www.w3.org/2000/svg"><path fill-rule="evenodd" clip-rule="evenodd" d="M13.583 13.594H2.333a.469.469 0 01-.469-.469V6.094H3.74c-.244.351-.326 1.007-.326 1.423a4.563 4.563 0 004.562 4.553 4.563 4.563 0 004.564-4.553c0-.416-.06-1.062-.362-1.423h1.875v7.031c0 .259-.21.469-.469.469zM7.975 4.64a2.881 2.881 0 012.885 2.877 2.881 2.881 0 01-2.885 2.878 2.881 2.881 0 01-2.884-2.878A2.881 2.881 0 017.975 4.64zm3.733-2.765h1.406c.259 0 .469.21.469.469V3.75c0 .259-.21.469-.469.469h-1.406a.469.469 0 01-.469-.469V2.344c0-.259.21-.469.469-.469zM13.675 0H2.24A1.78 1.78 0 00.458 1.779V13.22a1.78 1.78 0 001.783 1.779h11.434a1.78 1.78 0 001.783-1.779V1.78A1.78 1.78 0 0013.675 0z" fill="#444"/></svg>