<svg width="15" height="15" fill="none" xmlns="http://www.w3.org/2000/svg"><path fill-rule="evenodd" clip-rule="evenodd" d="M13.125 13.594H1.875a.469.469 0 01-.469-.469V6.094h1.875c-.244.351-.326 1.007-.326 1.423a4.563 4.563 0 004.562 4.553 4.563 4.563 0 004.564-4.553c0-.416-.06-1.062-.362-1.423h1.875v7.031a.47.47 0 01-.469.469M7.517 4.64a2.881 2.881 0 012.885 2.877 2.881 2.881 0 01-2.885 2.878 2.881 2.881 0 01-2.884-2.878A2.881 2.881 0 017.517 4.64m3.733-2.765h1.406c.259 0 .469.21.469.469V3.75c0 .259-.21.469-.469.469H11.25a.469.469 0 01-.469-.469V2.344c0-.259.21-.469.469-.469M13.217 0H1.783A1.78 1.78 0 000 1.779V13.22C0 14.204.798 15 1.783 15h11.434A1.78 1.78 0 0015 13.221V1.78A1.78 1.78 0 0013.217 0" fill="#fff"/></svg>