<svg width="15" height="15" viewBox="0 0 15 15" fill="none" xmlns="http://www.w3.org/2000/svg">
<path fill-rule="evenodd" clip-rule="evenodd" d="M13.125 13.5938H1.875C1.61625 13.5938 1.40625 13.3837 1.40625 13.125V6.09375H3.28125C3.03703 6.44531 2.95453 7.10109 2.95453 7.51734C2.95453 10.0275 5.00156 12.0698 7.51734 12.0698C10.0336 12.0698 12.0806 10.0275 12.0806 7.51734C12.0806 7.10109 12.0216 6.45516 11.7188 6.09375H13.5938V13.125C13.5938 13.3837 13.3837 13.5938 13.125 13.5938M7.51734 4.63969C9.11062 4.63969 10.402 5.92828 10.402 7.51734C10.402 9.10688 9.11062 10.3955 7.51734 10.3955C5.92453 10.3955 4.63312 9.10688 4.63312 7.51734C4.63312 5.92828 5.92453 4.63969 7.51734 4.63969M11.25 1.875H12.6562C12.915 1.875 13.125 2.085 13.125 2.34375V3.75C13.125 4.00875 12.915 4.21875 12.6562 4.21875H11.25C10.9913 4.21875 10.7812 4.00875 10.7812 3.75V2.34375C10.7812 2.085 10.9913 1.875 11.25 1.875M13.2169 0H1.78313C0.798281 0 0 0.796406 0 1.77891V13.2211C0 14.2036 0.798281 15 1.78313 15H13.2169C14.2017 15 15 14.2036 15 13.2211V1.77891C15 0.796406 14.2017 0 13.2169 0" fill="white"/>
</svg>
