<svg width="254" height="203" viewBox="0 0 254 203" fill="none" xmlns="http://www.w3.org/2000/svg">
<path fill-rule="evenodd" clip-rule="evenodd" d="M94.488 137.025H178.816C182.744 137.025 185.928 133.844 185.928 129.92C185.928 125.996 182.744 122.815 178.816 122.815C178.816 122.815 172.72 119.634 172.72 115.71C172.72 111.786 176.735 108.605 181.687 108.605H192.024C195.952 108.605 199.136 105.424 199.136 101.5C199.136 97.5761 195.952 94.3951 192.024 94.3951H169.672C173.6 94.3951 176.784 91.2141 176.784 87.2901C176.784 83.3661 173.6 80.1851 169.672 80.1851H210.312C214.24 80.1851 217.424 77.0041 217.424 73.0801C217.424 69.1561 214.24 65.9751 210.312 65.9751H110.744C106.816 65.9751 103.632 69.1561 103.632 73.0801C103.632 77.0041 106.816 80.1851 110.744 80.1851H70.104C66.1761 80.1851 62.992 83.3661 62.992 87.2901C62.992 91.2141 66.1761 94.3951 70.104 94.3951H95.504C99.4318 94.3951 102.616 97.5761 102.616 101.5C102.616 105.424 99.4318 108.605 95.504 108.605H54.864C50.9361 108.605 47.752 111.786 47.752 115.71C47.752 119.634 50.9361 122.815 54.864 122.815H94.488C90.5601 122.815 87.376 125.996 87.376 129.92C87.376 133.844 90.5601 137.025 94.488 137.025ZM203.2 101.5C203.2 105.424 206.384 108.605 210.312 108.605C214.24 108.605 217.424 105.424 217.424 101.5C217.424 97.5761 214.24 94.3951 210.312 94.3951C206.384 94.3951 203.2 97.5761 203.2 101.5Z" fill="#F3F7FF"/>
<path fill-rule="evenodd" clip-rule="evenodd" d="M73.9349 94.3951H72.9719C66.8113 94.3951 61.8171 89.4132 61.8171 83.2677C61.8171 77.1222 66.8113 72.1403 72.9719 72.1403C73.0116 72.1403 73.0513 72.1405 73.091 72.1409C74.0827 63.5219 81.1424 56.8401 89.7039 56.8401C98.7278 56.8401 106.083 64.263 106.424 73.5532C111.88 73.9051 116.681 79.2103 116.681 84.7421C116.681 89.2843 113.314 94.3951 109.325 94.3951H81.5867" fill="white"/>
<path d="M73.9349 94.3951H72.9719C66.8113 94.3951 61.8171 89.4132 61.8171 83.2677C61.8171 77.1222 66.8113 72.1403 72.9719 72.1403C73.0116 72.1403 73.0513 72.1405 73.091 72.1409C74.0827 63.5219 81.1424 56.8401 89.7039 56.8401C98.7278 56.8401 106.083 64.263 106.424 73.5532C111.88 73.9051 116.681 79.2103 116.681 84.7421C116.681 89.2843 113.314 94.3951 109.325 94.3951H81.5867" stroke="#0F2236" stroke-width="2.5" stroke-linecap="round"/>
<path d="M135.844 153.836C135.632 154.097 135.394 154.335 135.133 154.547C133.054 156.231 130.002 155.913 128.316 153.836C116.373 139.125 107.446 126.376 101.512 115.582C95.5618 104.76 92.6899 96.0295 92.6899 89.32C92.6899 67.5887 110.324 49.97 132.08 49.97C153.836 49.97 171.47 67.5887 171.47 89.32C171.47 96.0295 168.598 104.76 162.648 115.582C156.714 126.376 147.787 139.125 135.844 153.836Z" fill="white" stroke="#0F2236" stroke-width="2.5"/>
<path d="M114.328 148.221L115.559 148.001L115.339 146.77L114.108 146.99L114.328 148.221ZM107.274 149.869L106.916 148.671L105.718 149.029L106.076 150.227L107.274 149.869ZM114.68 150.189L114.9 151.42L116.131 151.2L115.911 149.969L114.68 150.189ZM107.847 151.785L106.649 152.143L107.007 153.341L108.205 152.983L107.847 151.785ZM163.305 152.422L162.712 153.523V153.523L163.305 152.422ZM165.442 164.062L164.697 163.058V163.058L165.442 164.062ZM157.524 167.762L157.15 166.57L157.524 167.762ZM106.636 167.762L107.01 166.57H107.01L106.636 167.762ZM98.7185 164.062L99.4635 163.058H99.4635L98.7185 164.062ZM97.634 154.669L98.4932 155.577H98.4932L97.634 154.669ZM102.944 151.419L104.092 150.925L103.598 149.777L102.45 150.271L102.944 151.419ZM103.734 153.256L104.228 154.404L105.376 153.91L104.882 152.762L103.734 153.256ZM99.0087 156.121L98.1495 155.214L98.1495 155.214L99.0087 156.121ZM99.9105 162.456L100.656 161.452H100.656L99.9105 162.456ZM107.235 165.854L106.86 167.047L107.235 165.854ZM156.925 165.854L157.3 167.047L156.925 165.854ZM164.249 162.456L163.504 161.452L163.504 161.452L164.249 162.456ZM162.356 154.183L162.949 153.082L162.356 154.183ZM150.001 150.284L148.772 150.056L148.543 151.285L149.772 151.513L150.001 150.284ZM150.366 148.318L150.595 147.089L149.366 146.861L149.138 148.09L150.366 148.318ZM114.108 146.99C111.513 147.454 109.098 148.019 106.916 148.671L107.632 151.066C109.71 150.445 112.032 149.901 114.548 149.451L114.108 146.99ZM115.911 149.969L115.559 148.001L113.098 148.441L113.45 150.41L115.911 149.969ZM108.205 152.983C110.201 152.386 112.447 151.859 114.9 151.42L114.46 148.959C111.928 149.412 109.588 149.96 107.488 150.587L108.205 152.983ZM106.076 150.227L106.649 152.143L109.044 151.427L108.471 149.511L106.076 150.227ZM169.89 158.913C169.89 155.511 167.053 153.023 163.898 151.322L162.712 153.523C165.761 155.167 167.39 157.02 167.39 158.913H169.89ZM166.187 165.066C168.223 163.554 169.89 161.5 169.89 158.913H167.39C167.39 160.337 166.471 161.741 164.697 163.058L166.187 165.066ZM157.899 168.955C161.239 167.906 164.106 166.61 166.187 165.066L164.697 163.058C162.928 164.371 160.354 165.564 157.15 166.57L157.899 168.955ZM132.08 172.328C142.063 172.328 151.191 171.061 157.899 168.955L157.15 166.57C150.745 168.58 141.881 169.828 132.08 169.828V172.328ZM106.261 168.955C112.969 171.061 122.097 172.328 132.08 172.328V169.828C122.279 169.828 113.415 168.58 107.01 166.57L106.261 168.955ZM97.9734 165.066C100.054 166.61 102.921 167.906 106.261 168.955L107.01 166.57C103.806 165.564 101.232 164.371 99.4635 163.058L97.9734 165.066ZM94.27 158.913C94.27 161.5 95.9371 163.554 97.9734 165.066L99.4635 163.058C97.6889 161.741 96.77 160.337 96.77 158.913H94.27ZM96.7747 153.761C95.341 155.118 94.27 156.851 94.27 158.913H96.77C96.77 157.777 97.3532 156.656 98.4932 155.577L96.7747 153.761ZM102.45 150.271C100.173 151.25 98.2066 152.406 96.7747 153.761L98.4932 155.577C99.6326 154.498 101.308 153.483 103.437 152.567L102.45 150.271ZM104.882 152.762L104.092 150.925L101.795 151.913L102.586 153.75L104.882 152.762ZM99.868 157.029C100.773 156.172 102.216 155.27 104.228 154.404L103.24 152.108C101.081 153.036 99.3474 154.08 98.1495 155.214L99.868 157.029ZM98.77 158.913C98.77 158.514 98.9667 157.882 99.868 157.029L98.1495 155.214C96.9499 156.349 96.27 157.593 96.27 158.913H98.77ZM100.656 161.452C99.0971 160.296 98.77 159.412 98.77 158.913H96.27C96.27 160.569 97.3371 162.103 99.1655 163.46L100.656 161.452ZM107.609 164.661C104.515 163.69 102.174 162.58 100.656 161.452L99.1655 163.46C100.996 164.819 103.629 166.032 106.86 167.047L107.609 164.661ZM132.08 167.828C122.424 167.828 113.772 166.596 107.609 164.661L106.86 167.047C113.326 169.077 122.242 170.328 132.08 170.328V167.828ZM156.551 164.661C150.388 166.596 141.736 167.828 132.08 167.828V170.328C141.918 170.328 150.834 169.077 157.3 167.047L156.551 164.661ZM163.504 161.452C161.986 162.58 159.645 163.69 156.551 164.661L157.3 167.047C160.531 166.032 163.164 164.819 164.995 163.46L163.504 161.452ZM165.39 158.913C165.39 159.412 165.063 160.296 163.504 161.452L164.995 163.46C166.823 162.103 167.89 160.569 167.89 158.913H165.39ZM161.763 155.283C164.718 156.876 165.39 158.221 165.39 158.913H167.89C167.89 156.719 166.022 154.739 162.949 153.082L161.763 155.283ZM149.772 151.513C154.876 152.463 158.989 153.788 161.763 155.283L162.949 153.082C159.86 151.417 155.468 150.03 150.229 149.056L149.772 151.513ZM149.138 148.09L148.772 150.056L151.23 150.513L151.595 148.547L149.138 148.09ZM163.898 151.322C160.557 149.52 155.941 148.084 150.595 147.089L150.138 149.547C155.349 150.517 159.686 151.891 162.712 153.523L163.898 151.322Z" fill="#0F2236"/>
<path d="M151.15 89.32C151.15 99.8399 142.613 108.37 132.08 108.37C128.259 108.37 124.704 107.249 121.722 105.318C119.973 104.185 118.421 102.774 117.13 101.148C114.55 97.898 113.01 93.7903 113.01 89.32C113.01 78.8002 121.547 70.27 132.08 70.27C142.613 70.27 151.15 78.8002 151.15 89.32Z" fill="white" stroke="#0F2236" stroke-width="2.5"/>
<path fill-rule="evenodd" clip-rule="evenodd" d="M175.532 58.0266C174.616 55.7412 172.804 53.9303 170.516 53.016L168.656 52.2725L170.516 51.529C172.804 50.6147 174.616 48.8038 175.532 46.5184L176.276 44.66L177.02 46.5184C177.935 48.8038 179.748 50.6147 182.036 51.529L183.896 52.2725L182.036 53.016C179.748 53.9303 177.935 55.7412 177.02 58.0266L176.276 59.885L175.532 58.0266Z" stroke="#0F2236" stroke-width="2.5" stroke-linejoin="round"/>
<path fill-rule="evenodd" clip-rule="evenodd" d="M155.134 137.025H154.432C149.943 137.025 146.304 133.39 146.304 128.905C146.304 124.421 149.943 120.785 154.432 120.785C154.461 120.785 154.49 120.785 154.519 120.786C155.241 114.496 160.385 109.62 166.624 109.62C173.199 109.62 178.559 115.037 178.807 121.816C182.783 122.073 186.281 125.944 186.281 129.981C186.281 133.296 183.828 137.025 180.921 137.025H160.709" fill="white"/>
<path d="M155.134 137.025H154.432C149.943 137.025 146.304 133.39 146.304 128.905C146.304 124.421 149.943 120.785 154.432 120.785C154.461 120.785 154.49 120.785 154.519 120.786C155.241 114.496 160.385 109.62 166.624 109.62C173.199 109.62 178.559 115.037 178.807 121.816C182.783 122.073 186.281 125.944 186.281 129.981C186.281 133.296 183.828 137.025 180.921 137.025H160.709" stroke="#0F2236" stroke-width="2.5" stroke-linecap="round"/>
</svg>
