<svg width="53" height="47" viewBox="0 0 53 47" fill="none" xmlns="http://www.w3.org/2000/svg">
<g clip-path="url(#clip0)">
<path d="M6.1829 33.7451V23.0989L3.53355 23.5065V34.1129L0.883117 34.4892V23.9195L0 24.0549V21.4149L14.1331 19.1921V32.6278L11.4838 32.9999V22.287L8.83333 22.6957V33.373L6.1829 33.7451Z" fill="#1D1E1E"/>
<path d="M16.7836 32.2609V18.7747L27.3831 17.1079V30.7651L16.7836 32.2609ZM24.7338 28.4218V20.2491L19.4329 21.0631V29.1789L24.7338 28.4218Z" fill="#1D1E1E"/>
<path d="M33.566 29.8951V18.8877L30.0336 19.4318V16.6907L39.75 15.1626V17.936L36.2165 18.4801V29.5263L33.566 29.8951Z" fill="#1D1E1E"/>
<path d="M42.3993 28.6575V14.7454L52.9999 13.0786V27.1659L42.3993 28.6575ZM50.3495 24.7334V16.3047L45.0497 17.1198V25.4937L50.3495 24.7334Z" fill="#1D1E1E"/>
<path d="M40.2401 31.133L38.3756 31.4008L31.4067 32.3793V32.5632H44.931V33.8676C44.9307 33.8831 44.9266 33.8982 44.9188 33.9116C44.9111 33.9249 44.9 33.9361 44.8867 33.944L26.8681 44.3052C26.8545 44.3126 26.8393 44.3165 26.8238 44.3165C26.8083 44.3165 26.7931 44.3126 26.7796 44.3052L11.0173 35.242L6.83276 35.8291C7.00437 36.0013 7.19824 36.1499 7.40927 36.2711L25.4279 46.6333C25.8519 46.8764 26.3325 47.0043 26.8217 47.0043C27.3108 47.0043 27.7915 46.8764 28.2154 46.6333L46.234 36.2711C46.6571 36.0267 47.0085 35.676 47.253 35.2541C47.4976 34.8322 47.6268 34.3538 47.6278 33.8666V30.1028L40.2401 31.133Z" fill="#1D1E1E"/>
<path d="M46.2363 10.7332L28.2176 0.370998C27.7937 0.127931 27.313 0 26.8239 0C26.3347 0 25.8541 0.127931 25.4301 0.370998L7.41147 10.7332C6.98816 10.9774 6.63664 11.328 6.39205 11.75C6.14745 12.172 6.01837 12.6505 6.0177 13.1378V18.578H7.06708L24.0622 15.7004V15.453L24.1011 15.4466H8.71671V13.1378C8.71672 13.1223 8.72081 13.1071 8.72858 13.0937C8.73635 13.0803 8.74752 13.0691 8.76098 13.0614L26.7796 2.69917C26.793 2.69121 26.8083 2.68701 26.8239 2.68701C26.8394 2.68701 26.8547 2.69121 26.8681 2.69917L43.6797 12.3667L47.2867 11.8C47.0409 11.3556 46.6776 10.9867 46.2363 10.7332Z" fill="#1D1E1E"/>
<path d="M19.4739 38.268V35.4452H18.6232V34.5989H21.4571V35.4452H20.6075V38.268H19.4739Z" fill="#1D1E1E"/>
<path d="M22.5907 38.2679L22.3068 37.9862L22.0239 37.7034V35.1644L22.3068 34.8827L22.5907 34.5999H24.2911L24.574 34.8827L24.8579 35.1644V37.7044L24.574 37.9873L24.2911 38.2679H22.5907ZM23.7243 37.4216V35.4451H23.1575V37.4227L23.7243 37.4216Z" fill="#1D1E1E"/>
<path d="M25.9904 38.268L25.7075 37.9863L25.4247 37.7035V34.5989H26.5583V37.4228H27.1251V34.5989H28.2586V37.7035L27.9758 37.9863L27.6919 38.268H25.9904Z" fill="#1D1E1E"/>
<path d="M28.8254 38.268V34.5989H31.0926L31.3755 34.8817L31.6594 35.1634V36.0098L31.3755 36.2926L31.6594 36.5743V38.268H30.5258V37.1389H29.959V38.268H28.8254ZM30.5258 36.2926V35.4452H29.959V36.2926H30.5258Z" fill="#1D1E1E"/>
<path d="M32.7919 38.2679L32.508 37.9862L32.2251 37.7034V37.1388H33.3598V37.4227H33.9266V36.8581H32.7919L32.508 36.5753L32.2251 36.2936V35.1644L32.508 34.8827L32.7919 34.5999H34.4912L34.7751 34.8827L35.058 35.1644V35.729H33.9244V35.4462H33.3598V36.0107H34.4933L34.7773 36.2936L35.0601 36.5753V37.7044L34.7773 37.9873L34.4933 38.269L32.7919 38.2679Z" fill="#1D1E1E"/>
<path d="M35.1088 10.9945C34.3531 11.0494 31.8365 11.2096 30.1901 11.1354C30.2333 11.0214 30.2722 10.9042 30.3046 10.7859C31.9056 10.5569 35.4942 9.93422 35.9001 10.0504C35.9001 10.0504 34.5539 9.25136 33.6945 9.46751C33.1882 9.5944 31.6778 9.96218 30.4125 10.1773C30.4222 10.0697 30.4276 9.96218 30.4276 9.85464C30.4276 9.82346 30.4276 9.79227 30.4276 9.76001C31.8171 9.289 33.9072 8.55667 34.2008 8.58786C34.2008 8.58786 32.9992 8.13298 32.3364 8.4287C32.0211 8.56958 31.2017 8.92983 30.3769 9.24813C30.3532 9.10905 30.3211 8.97152 30.2808 8.83627C31.2676 8.29859 32.4163 7.66627 32.6181 7.65337C32.6181 7.65337 31.5839 7.4555 31.0905 7.78886C30.9199 7.90393 30.5507 8.15019 30.1243 8.4201C30.0686 8.29389 30.0056 8.17108 29.9353 8.05233C30.5205 7.58562 31.0786 7.15332 31.2071 7.12106C31.2071 7.12106 30.3434 7.10923 29.9925 7.44367C29.931 7.50389 29.8317 7.5996 29.7086 7.71574C29.6293 7.6128 29.5446 7.51409 29.4549 7.42001C29.7129 7.13611 29.9224 6.91889 29.9947 6.88878C29.9947 6.88878 29.5046 6.96728 29.2077 7.18343C28.5609 6.63029 27.728 6.34128 26.8762 6.37439C26.0243 6.4075 25.2166 6.76028 24.615 7.36194L24.5945 7.33291C24.3592 7.0103 23.6607 6.90276 23.6607 6.90276C23.7449 6.93932 24.0385 7.2544 24.3743 7.63078C24.2965 7.72501 24.2244 7.82376 24.1584 7.92651C23.937 7.72219 23.7567 7.54905 23.6617 7.45765C23.3119 7.11891 22.4483 7.13504 22.4483 7.13504C22.594 7.1716 23.2979 7.72649 23.9651 8.26202C23.9059 8.37277 23.8525 8.48656 23.8053 8.60291C23.2655 8.26955 22.7657 7.93726 22.5584 7.79746C22.0661 7.4641 21.0307 7.66197 21.0307 7.66197C21.2553 7.67702 22.635 8.44268 23.6758 9.01478C23.6457 9.13673 23.6222 9.26022 23.6056 9.38471C22.6782 9.03951 21.6709 8.59861 21.3125 8.43838C20.6496 8.14266 19.4491 8.59754 19.4491 8.59754C19.773 8.56313 22.2172 9.43417 23.5732 9.88798C23.5731 10.0051 23.5796 10.1221 23.5926 10.2385C22.2701 10.0353 20.5125 9.60731 19.9533 9.46321C19.0896 9.24813 17.7477 10.0461 17.7477 10.0461C18.1881 9.92024 22.39 10.6655 23.7092 10.8311C23.7362 10.9257 23.7675 11.0193 23.8021 11.1096C22.1827 11.2311 19.3466 11.0483 18.539 10.9902C17.4594 10.9117 16.0149 12.1559 16.0149 12.1559C16.5396 11.9 22.2021 11.9215 23.543 11.8333C23.7354 11.8214 23.9254 11.7853 24.1087 11.7258C24.4079 12.2123 24.826 12.6153 25.3239 12.8973C25.8219 13.1794 26.3834 13.3312 26.9561 13.3386C27.5289 13.346 28.0942 13.2088 28.5993 12.9397C29.1044 12.6707 29.5328 12.2786 29.8446 11.8C29.9256 11.8129 30.0109 11.8236 30.1048 11.8301C31.4457 11.9226 37.1082 11.9011 37.6329 12.1527C37.6329 12.1602 36.1862 10.916 35.1088 10.9945ZM26.9999 12.7033C26.4327 12.7148 25.875 12.5578 25.3977 12.2523C24.9205 11.9468 24.5455 11.5067 24.3204 10.988C24.0953 10.4693 24.0304 9.89565 24.134 9.3401C24.2376 8.78455 24.505 8.27232 24.9021 7.86874C25.2991 7.46517 25.8078 7.18853 26.3634 7.07411C26.9189 6.9597 27.496 7.01268 28.0212 7.22632C28.5464 7.43995 28.9958 7.80455 29.3121 8.27362C29.6284 8.74269 29.7972 9.29497 29.7971 9.86002C29.8046 10.6065 29.5141 11.3254 28.9896 11.8586C28.465 12.3918 27.7493 12.6956 26.9999 12.7033Z" fill="#1D1E1E"/>
<path d="M26.9998 7.42868C26.5151 7.41929 26.0386 7.55386 25.631 7.81525C25.2234 8.07664 24.9031 8.453 24.7111 8.89638C24.519 9.33975 24.4639 9.83004 24.5526 10.3048C24.6414 10.7795 24.87 11.2171 25.2094 11.5619C25.5488 11.9067 25.9836 12.143 26.4584 12.2407C26.9331 12.3384 27.4264 12.2931 27.8752 12.1106C28.324 11.928 28.708 11.6165 28.9784 11.2157C29.2488 10.8149 29.3932 10.343 29.3933 9.86009C29.3965 9.54389 29.337 9.23018 29.2184 8.93686C29.0999 8.64355 28.9244 8.37637 28.7022 8.15059C28.4799 7.92481 28.2152 7.74485 27.9231 7.62098C27.631 7.49712 27.3173 7.43177 26.9998 7.42868ZM28.2187 9.48371L27.6293 10.0666C27.6282 10.0684 27.6277 10.0704 27.6277 10.0725C27.6277 10.0745 27.6282 10.0766 27.6293 10.0784L27.7772 10.8924C27.7778 10.8949 27.7776 10.8975 27.7767 10.8999C27.7758 10.9023 27.7742 10.9044 27.7721 10.9059C27.7701 10.9074 27.7676 10.9083 27.765 10.9084C27.7624 10.9084 27.7599 10.9078 27.7577 10.9064L27.0193 10.5279C27.0151 10.5263 27.0105 10.5263 27.0063 10.5279L26.2754 10.9193C26.2732 10.9205 26.2706 10.9211 26.2681 10.9209C26.2655 10.9208 26.263 10.9199 26.2609 10.9185C26.2588 10.9171 26.2571 10.9151 26.2561 10.9128C26.255 10.9104 26.2546 10.9079 26.2549 10.9053L26.3888 10.0881C26.3896 10.0864 26.39 10.0845 26.39 10.0827C26.39 10.0808 26.3896 10.079 26.3888 10.0773L25.781 9.50629C25.7792 9.50448 25.7779 9.5022 25.7773 9.49971C25.7767 9.49722 25.7767 9.49462 25.7775 9.49217C25.7783 9.48973 25.7797 9.48755 25.7817 9.48587C25.7836 9.48419 25.786 9.48307 25.7885 9.48263L26.609 9.35682C26.6112 9.35657 26.6132 9.35573 26.6149 9.3544C26.6167 9.35308 26.618 9.35131 26.6187 9.34929L26.9804 8.60298C26.9814 8.60068 26.9831 8.59872 26.9852 8.59735C26.9873 8.59597 26.9898 8.59524 26.9923 8.59524C26.9948 8.59524 26.9973 8.59597 26.9994 8.59735C27.0015 8.59872 27.0032 8.60068 27.0042 8.60298L27.3777 9.34176C27.3789 9.3436 27.3805 9.34514 27.3823 9.34626C27.3842 9.34738 27.3863 9.34805 27.3885 9.34821L28.2112 9.45575C28.2149 9.45475 28.2188 9.45527 28.2222 9.45718C28.2255 9.4591 28.228 9.46226 28.229 9.46597C28.23 9.46967 28.2295 9.47363 28.2275 9.47695C28.2256 9.48028 28.2224 9.48271 28.2187 9.48371Z" fill="#1D1E1E"/>
</g>
<defs>
<clipPath id="clip0">
<rect width="53" height="47" fill="white"/>
</clipPath>
</defs>
</svg>
