<svg width="53" height="47" fill="none" xmlns="http://www.w3.org/2000/svg"><g clip-path="url(#clip0)" fill="#1D1E1E"><path d="M6.183 33.745V23.1l-2.65.407v10.607l-2.65.376V23.92L0 24.055v-2.64l14.133-2.223v13.436l-2.65.372V22.287l-2.65.409v10.677l-2.65.372zm10.601-1.485V18.776l10.6-1.667v13.657l-10.6 1.496zm7.95-3.838v-8.173l-5.301.814v8.116l5.3-.757zm8.832 1.473V18.888l-3.532.544V16.69l9.716-1.528v2.773l-3.533.544v11.046l-2.651.37zm8.834-1.238V14.745L53 13.08v14.087l-10.6 1.491zm7.95-3.924v-8.428l-5.3.815v8.374l5.3-.76zm-10.11 6.4l-1.864.268-6.97.978v.184h13.525v1.305a.09.09 0 01-.044.076L26.868 44.305a.093.093 0 01-.088 0l-15.763-9.063-4.184.587c.171.172.365.32.576.442l18.019 10.362a2.802 2.802 0 002.787 0l18.019-10.362a2.791 2.791 0 001.394-2.404v-3.764l-7.388 1.03zm5.996-20.4L28.218.371a2.802 2.802 0 00-2.788 0L7.411 10.733a2.788 2.788 0 00-1.393 2.405v5.44h1.05L24.061 15.7v-.247l.04-.006H8.716v-2.31a.088.088 0 01.044-.076L26.78 2.7a.087.087 0 01.088 0l16.812 9.668 3.607-.567a2.786 2.786 0 00-1.05-1.067z"/><path d="M19.474 38.268v-2.823h-.85V34.6h2.833v.846h-.85v2.823h-1.133zm3.116 0l-.283-.282-.283-.283v-2.539l.283-.281.284-.283h1.7l.283.283.284.281v2.54l-.284.283-.283.28h-1.7zm1.134-.846v-1.977h-.567v1.978l.567-.001zm2.266.846l-.282-.282-.283-.282v-3.105h1.133v2.824h.567v-2.824h1.134v3.105l-.283.282-.284.282H25.99zm2.835 0v-3.67h2.268l.282.284.284.281v.847l-.284.283.284.281v1.694h-1.133v-1.13h-.567v1.13h-1.134zm1.7-1.975v-.848h-.566v.848h.567zm2.267 1.975l-.284-.282-.283-.283v-.564h1.135v.284h.567v-.565h-1.135l-.284-.283-.283-.281v-1.13l.283-.281.284-.283h1.7l.283.283.283.281v.565h-1.134v-.283h-.564v.565h1.133l.284.283.283.281v1.13l-.283.282-.284.282-1.701-.001zm2.317-27.273c-.756.054-3.273.215-4.919.14a3.98 3.98 0 00.115-.35c1.6-.228 5.19-.85 5.595-.735 0 0-1.346-.799-2.206-.582-.506.126-2.016.494-3.282.71a3.51 3.51 0 00.016-.323V9.76c1.39-.471 3.48-1.203 3.773-1.172 0 0-1.202-.455-1.865-.16a44.08 44.08 0 01-1.96.82 3.503 3.503 0 00-.095-.412c.987-.537 2.135-1.17 2.337-1.183 0 0-1.034-.197-1.528.136-.17.115-.54.361-.966.631a3.48 3.48 0 00-.189-.368c.585-.466 1.144-.899 1.272-.93 0 0-.864-.013-1.215.322-.061.06-.16.156-.283.272a3.707 3.707 0 00-.254-.296c.258-.284.467-.501.54-.531 0 0-.49.078-.787.294a3.385 3.385 0 00-4.593.179l-.02-.03c-.236-.322-.934-.43-.934-.43.084.037.377.352.713.729-.077.094-.15.193-.216.296a32.283 32.283 0 01-.496-.47c-.35-.338-1.214-.322-1.214-.322.146.037.85.591 1.517 1.127a3.57 3.57 0 00-.16.34c-.54-.332-1.04-.665-1.247-.805-.492-.333-1.527-.135-1.527-.135.224.015 1.604.78 2.645 1.353-.03.122-.054.245-.07.37a43.078 43.078 0 01-2.294-.947c-.662-.295-1.863.16-1.863.16.324-.035 2.768.836 4.124 1.29 0 .117.007.234.02.35-1.323-.203-3.08-.63-3.64-.775-.863-.215-2.205.583-2.205.583.44-.126 4.642.62 5.961.785.027.095.058.188.093.279-1.62.121-4.455-.062-5.263-.12-1.08-.078-2.524 1.166-2.524 1.166.525-.256 6.187-.235 7.528-.323a2.29 2.29 0 00.566-.107 3.384 3.384 0 002.847 1.613 3.401 3.401 0 002.889-1.539c.08.013.166.024.26.03 1.34.093 7.003.071 7.528.323 0 .007-1.447-1.237-2.524-1.159zm-8.11 1.708a2.864 2.864 0 01-1.601-.45 2.834 2.834 0 01-.496-4.384 2.858 2.858 0 013.12-.643 2.86 2.86 0 011.29 1.048c.316.469.485 1.021.485 1.586a2.81 2.81 0 01-.807 1.999 2.832 2.832 0 01-1.99.844z"/><path d="M27 7.429a2.448 2.448 0 00-2.289 1.467 2.423 2.423 0 00.498 2.666 2.443 2.443 0 002.666.549 2.424 2.424 0 001.518-2.25 2.398 2.398 0 00-.69-1.71A2.418 2.418 0 0027 7.429zm1.219 2.055l-.59.583a.011.011 0 00-.001.005l.001.006.148.814v.008a.013.013 0 01-.005.006.013.013 0 01-.014 0l-.739-.378a.018.018 0 00-.013 0l-.73.391a.014.014 0 01-.02-.006.014.014 0 01-.001-.008l.134-.817a.013.013 0 000-.01l-.608-.572a.014.014 0 010-.02.014.014 0 01.008-.003l.82-.126a.012.012 0 00.006-.003.01.01 0 00.004-.005l.361-.746a.013.013 0 01.012-.008.013.013 0 01.012.008l.374.739a.014.014 0 00.01.006l.823.108a.015.015 0 01.018.01.014.014 0 01-.01.018z"/></g><defs><clipPath id="clip0"><path fill="#fff" d="M0 0h53v47H0z"/></clipPath></defs></svg>