<svg width="19" height="15" fill="none" xmlns="http://www.w3.org/2000/svg"><path fill-rule="evenodd" clip-rule="evenodd" d="M18.458 1.775a7.58 7.58 0 01-2.175.597A3.798 3.798 0 0017.948.277a7.595 7.595 0 01-2.405.919A3.787 3.787 0 009.09 4.65 10.751 10.751 0 011.286.693a3.785 3.785 0 001.171 5.056 3.768 3.768 0 01-1.714-.474v.048A3.789 3.789 0 003.78 9.036a3.794 3.794 0 01-1.71.065 3.79 3.79 0 003.538 2.63 7.598 7.598 0 01-4.704 1.62c-.305 0-.607-.017-.903-.052A10.721 10.721 0 005.805 15c6.966 0 10.774-5.77 10.774-10.774 0-.165-.003-.328-.01-.49a7.681 7.681 0 001.889-1.96z" fill="#444"/></svg>